<svg width="1212" height="423" viewBox="0 0 1212 423" fill="none" xmlns="http://www.w3.org/2000/svg">
<rect width="1202" height="413.5" fill="black" fill-opacity="0" transform="translate(5.5 0.5)"/>
<rect width="288.189" height="343.5" fill="black" fill-opacity="0" transform="translate(5.5 0.5)"/>
<g filter="url(#filter0_d)">
<path d="M102 238C150.612 267.2 135 318 118.5 344L7 315L5.5 0.5H293C293 37.5 307.5 73 203.453 105C168.891 115.63 -18.9627 165.341 102 238Z" fill="#E5E5E5"/>
</g>
<rect width="608.603" height="115.694" fill="black" fill-opacity="0" transform="translate(166 298.306)"/>
<path d="M237.5 299C199.261 303.407 175.5 336 166 358.41L406.5 414L774.5 385C776.021 362.306 762.871 314.374 583.5 319.5C536.639 320.839 505.006 321.037 478.5 323C408.681 328.171 418.729 323.304 412 323C402.234 322.559 285.299 293.491 237.5 299Z" fill="#706E6E"/>
<g filter="url(#filter1_d)">
<path d="M235.5 304.5C197.261 308.907 175.5 336 166 358.41L406.5 414L774.5 385C776.021 362.306 760.871 317.874 581.5 323C534.639 324.339 500.006 326.037 473.5 328C403.681 333.171 413.229 328.304 406.5 328C396.734 327.559 283.299 298.991 235.5 304.5Z" fill="#E5E5E5"/>
</g>
<rect width="569" height="59.0326" fill="black" fill-opacity="0" transform="translate(449.5 2)"/>
<g filter="url(#filter2_d)">
<path d="M449.5 2C486.5 50 856 106.5 1018.5 2H449.5Z" fill="#E5E5E5"/>
</g>
<rect width="314.938" height="372.5" fill="black" fill-opacity="0" transform="translate(892.562 2.5)"/>
<path d="M987.5 278.5C903.883 293.201 889.666 345.332 893 370L895.5 375L1043.72 352.08L1199 340.16L1206.5 3C1177.29 9.75473 1171.5 47.7355 1169.5 58C1154.89 105.212 1142.56 162.602 1099.5 217.5C1074.76 249.039 1018.01 273.136 987.5 278.5Z" fill="#928C8C"/>
<g filter="url(#filter3_d)">
<path d="M989.957 282.619C906.34 297.321 892.104 350.332 895.438 375L1050.72 363.08L1207.5 350L1207 2.5C1177.79 9.25473 1173 52.2355 1171 62.5C1156.39 109.712 1148.54 166.134 1105.48 221.032C1080.74 252.571 1020.47 277.255 989.957 282.619Z" fill="#E5E5E5"/>
</g>
<defs>
<filter id="filter0_d" x="0.99761" y="0" width="297.191" height="352.576" filterUnits="userSpaceOnUse" color-interpolation-filters="sRGB">
<feFlood flood-opacity="0" result="BackgroundImageFix"/>
<feColorMatrix in="SourceAlpha" type="matrix" values="0 0 0 0 0 0 0 0 0 0 0 0 0 0 0 0 0 0 255 0"/>
<feOffset dy="4"/>
<feGaussianBlur stdDeviation="2"/>
<feColorMatrix type="matrix" values="0 0 0 0 0 0 0 0 0 0 0 0 0 0 0 0 0 0 0.25 0"/>
<feBlend mode="normal" in2="BackgroundImageFix" result="effect1_dropShadow"/>
<feBlend mode="normal" in="SourceGraphic" in2="effect1_dropShadow" result="shape"/>
</filter>
<filter id="filter1_d" x="161.307" y="303.295" width="617.786" height="119.209" filterUnits="userSpaceOnUse" color-interpolation-filters="sRGB">
<feFlood flood-opacity="0" result="BackgroundImageFix"/>
<feColorMatrix in="SourceAlpha" type="matrix" values="0 0 0 0 0 0 0 0 0 0 0 0 0 0 0 0 0 0 255 0"/>
<feOffset dy="4"/>
<feGaussianBlur stdDeviation="2"/>
<feColorMatrix type="matrix" values="0 0 0 0 0 0 0 0 0 0 0 0 0 0 0 0 0 0 0.25 0"/>
<feBlend mode="normal" in2="BackgroundImageFix" result="effect1_dropShadow"/>
<feBlend mode="normal" in="SourceGraphic" in2="effect1_dropShadow" result="shape"/>
</filter>
<filter id="filter2_d" x="444.483" y="1.5" width="579.719" height="68.0326" filterUnits="userSpaceOnUse" color-interpolation-filters="sRGB">
<feFlood flood-opacity="0" result="BackgroundImageFix"/>
<feColorMatrix in="SourceAlpha" type="matrix" values="0 0 0 0 0 0 0 0 0 0 0 0 0 0 0 0 0 0 255 0"/>
<feOffset dy="4"/>
<feGaussianBlur stdDeviation="2"/>
<feColorMatrix type="matrix" values="0 0 0 0 0 0 0 0 0 0 0 0 0 0 0 0 0 0 0.25 0"/>
<feBlend mode="normal" in2="BackgroundImageFix" result="effect1_dropShadow"/>
<feBlend mode="normal" in="SourceGraphic" in2="effect1_dropShadow" result="shape"/>
</filter>
<filter id="filter3_d" x="890.5" y="1.87137" width="321.501" height="381.663" filterUnits="userSpaceOnUse" color-interpolation-filters="sRGB">
<feFlood flood-opacity="0" result="BackgroundImageFix"/>
<feColorMatrix in="SourceAlpha" type="matrix" values="0 0 0 0 0 0 0 0 0 0 0 0 0 0 0 0 0 0 255 0"/>
<feOffset dy="4"/>
<feGaussianBlur stdDeviation="2"/>
<feColorMatrix type="matrix" values="0 0 0 0 0 0 0 0 0 0 0 0 0 0 0 0 0 0 0.25 0"/>
<feBlend mode="normal" in2="BackgroundImageFix" result="effect1_dropShadow"/>
<feBlend mode="normal" in="SourceGraphic" in2="effect1_dropShadow" result="shape"/>
</filter>
</defs>
</svg>
