<?xml version="1.0" encoding="utf-8"?>
<!-- Generator: Adobe Illustrator 22.0.1, SVG Export Plug-In . SVG Version: 6.00 Build 0)  -->
<svg version="1.0" id="Слой_1" xmlns="http://www.w3.org/2000/svg" xmlns:xlink="http://www.w3.org/1999/xlink" x="0px" y="0px"
	 viewBox="0 0 1199.8 1199.8" style="enable-background:new 0 0 1199.8 1199.8;" xml:space="preserve">
<style type="text/css">
	.st0{fill:#E2E2E2;}
	.st2{fill:#C9C8C9;}
	.st1{fill:#979695;}
</style>
<polygon class="st0 level1" points="0,313 401.6,403.3 1199.8,342 1199.8,0 0,0 "/>
<path class="st2 level2" d="M728.1,0c0,0,31,144.1-198,160.1S0,80,0,80V0H728.1z"/>
<path class="st1 " d="M879.8,366.6c0,0-25.7-26,51.3-48.8c77-22.7,106-32.6,83-116.2c-23-83.5,185.8-157.5,185.8-157.5V342
	L879.8,366.6z"/>
<path class="st1" d="M88.7,332.9c0,0,62.4-28.8,168.4-6.8s135,41,262,23s229,27.6,229,27.6l-346.4,26.6L88.7,332.9z"/>
<path class="st1" d="M0,267.1c0,0,76.7,14.4,70.4,61.7L0,313V267.1z"/>
<polygon class="st1" points="88.7,341.4 88.7,332.9 131.5,333.4 113.4,345.3 "/>
<polygon class="st1" points="70.7,332.3 70.7,322.8 59.1,317.8 "/>
<polygon class="st1" points="748,385.2 748,376.7 696.2,368.1 695.1,382.8 "/>
<polygon class="st12" points="875.7,364.5 875.7,355.1 895.6,350 "/>
<path class="st2 level2" d="M879.8,375.1c0,0-25.7-26,51.3-48.8s106-32.6,83-116.2c-23-83.5,185.8-157.5,185.8-157.5v297.9L879.8,375.1z"/>
<path class="st2 level2" d="M88.7,341.4c0,0,62.4-28.8,168.4-6.8s135,41,262,23s229,27.6,229,27.6l-346.4,26.6L88.7,341.4z"/>
<path class="st2 level2" d="M0,275.6c0,0,76.7,14.4,70.4,61.7L0,321.5V275.6z"/>
</svg>
