<?xml version="1.0" encoding="utf-8"?>
<!-- Generator: Adobe Illustrator 22.0.1, SVG Export Plug-In . SVG Version: 6.00 Build 0)  -->
<svg version="1.0" id="Слой_1" xmlns="http://www.w3.org/2000/svg" xmlns:xlink="http://www.w3.org/1999/xlink" x="0px" y="0px"
	 viewBox="0 0 1199.8 1199.8" style="enable-background:new 0 0 1199.8 1199.8;" xml:space="preserve">
<style type="text/css">
	.st0{fill:#E2E2E2;}
	.st1{fill:#979695;}
	.st2{fill:#C9C8C9;}
</style>
<polygon class="st0 level2" points="0,313 401.6,403.3 1199.8,342 1199.8,0 0,0 "/>
<path class="st1" d="M0,0v313l259.2,58.3c0,0,22.1-55.3,163.1-108.1c84.4,48.8,253.6,121.9,458.3,76.6c104-23,81.9-89.8-22.4-159.3
	c97.4-7.8,210.5-12.2,341.7-11.8V0H0z"/>
<path class="st2 level1" d="M0,0v321.5l259.2,58.3c0,0,22.1-55.3,163.1-108.1c84.4,48.8,253.6,121.9,458.3,76.6
	c104-23,81.9-89.8-22.4-159.3c97.4-7.8,210.5-12.2,341.7-11.8V0H0z"/>
</svg>
