<?xml version="1.0" encoding="utf-8"?>
<!-- Generator: Adobe Illustrator 22.0.1, SVG Export Plug-In . SVG Version: 6.00 Build 0)  -->
<svg version="1.0" id="Слой_1" xmlns="http://www.w3.org/2000/svg" xmlns:xlink="http://www.w3.org/1999/xlink" x="0px" y="0px"
	 viewBox="0 0 1199.8 1199.8" style="enable-background:new 0 0 1199.8 1199.8;" xml:space="preserve">
<style type="text/css">
	.st0{fill:#E2E2E2;}
	.st1{fill:#979695;}
	.st2{fill:#C9C8C9;}
</style>
<polygon class="st0 level1" points="0,313 401.6,403.3 1199.8,342 1199.8,0 0,0 "/>
<path class="st1" d="M0,0v313l401.6,90.3l798.2-61.3V0H0z M848.6,340.2l-435.5,33.8l-176.6-56.7c0,0,110.2-37.4,5.5-99.6
	c-88.1-52.4-165.5-69.4-165.5-69.4l895-89.9l85,159.9C1056.6,218.2,794.6,212.2,848.6,340.2z"/>
<path class="st2 level2" d="M0,0v321.5l401.6,90.3l798.2-61.3V0H0z M848.6,348.7l-435.5,33.8l-176.6-56.7c0,0,110.2-37.4,5.5-99.6
	c-88.1-52.4-165.5-69.4-165.5-69.4l893-73.7l87,143.7C1056.6,226.7,794.6,220.7,848.6,348.7z"/>
</svg>
