<?xml version="1.0" encoding="utf-8"?>
<!-- Generator: Adobe Illustrator 22.0.1, SVG Export Plug-In . SVG Version: 6.00 Build 0)  -->
<svg version="1.0" id="Слой_1" xmlns="http://www.w3.org/2000/svg" xmlns:xlink="http://www.w3.org/1999/xlink" x="0px" y="0px"
	 viewBox="0 0 1199.8 1199.8" style="enable-background:new 0 0 1199.8 1199.8;" xml:space="preserve">
<style type="text/css">
	.st0{fill:#E2E2E2;}
	.st1{fill:#979695;}
	.st2{fill:#C9C8C9;}
</style>
<polygon class="st0 level1" points="0,313 401.6,403.3 1199.8,342 1199.8,0 0,0 "/>
<path class="st1" d="M239.2,0c0,0,166.7,117.2,207.3,123.8c40.7,6.7,98.7-8,120,4.7c21.3,12.7,77.3,70,98.7,68
	c21.3-2,64.7-5.3,64.7-5.3s86.7,84,172.7,109.3c86,25.3,131.2,29.4,130,32.9s-35.2,5-39,8.3s9.3,15.5,9.3,15.5l197-15.1V0H239.2z"/>
<path class="st1" d="M0,234.5c0,0,291.9,1.3,486.6,42.7s214,68,243.3,67c29.3-1,47-8.7,59-1.7s40.9,27.9,40.9,27.9l-428.2,32.9
	L0,313V234.5z"/>
<polygon class="st1" points="829.8,370.4 829.8,378.9 814.4,370.4 "/>
<polygon class="st1" points="992.9,343.6 992.9,351.4 1004.5,351.4 "/>
<path class="st2 level2" d="M239.2,0c0,0,166.7,125.7,207.3,132.3c40.7,6.7,98.7-8,120,4.7c21.3,12.7,77.3,70,98.7,68
	c21.3-2,64.7-5.3,64.7-5.3s86.7,84,172.7,109.3c86,25.3,131.2,29.4,130,32.9s-35.2,5-39,8.3s9.3,15.5,9.3,15.5l197-15.1V0H239.2z"/>
<path class="st2 level2" d="M0,243c0,0,291.9,1.3,486.6,42.7s214,68,243.3,67c29.3-1,47-8.7,59-1.7s40.9,27.9,40.9,27.9l-428.2,32.9
	L0,321.5V243z"/>
</svg>
