<?xml version="1.0" encoding="utf-8"?>
<!-- Generator: Adobe Illustrator 22.0.1, SVG Export Plug-In . SVG Version: 6.00 Build 0)  -->
<svg version="1.0" id="Слой_1" xmlns="http://www.w3.org/2000/svg" xmlns:xlink="http://www.w3.org/1999/xlink" x="0px" y="0px"
	 viewBox="0 0 1199.8 1199.8" style="enable-background:new 0 0 1199.8 1199.8;" xml:space="preserve">
<style type="text/css">
	.st0{fill:#E2E2E2;}
	.st1{fill:#979695;}
	.st2{fill:#C9C8C9;}
</style>
<polygon class="st0 level1" points="0,313 401.6,403.3 1199.8,342 1199.8,0 0,0 "/>
<path class="st1" d="M713.9,0c0,0,195.7,86.3,291.7,189.8s-7.6,167.7-7.6,167.7l201.9-15.5V0H713.9z"/>
<path class="st1" d="M0,197.4c0,0,261.4,178.2,540.4,195.2l0,0l-138.8,10.7L0,313V197.4z"/>
<path class="st1" d="M357.6,0H210.2c-16.4,1.5-32.6,3.5-48.7,6.2c-309.1,50.6,218,363.1,646,339.1C1175.8,324.5,766.8,33.7,357.6,0z
	"/>
<polygon class="st1" points="997.9,357.5 997.9,366 1022.7,354.2 "/>
<polygon class="st1" points="540.4,392.6 447.2,394.5 540.4,401.1 "/>
<path class="st2" d="M419.4,15.5c-11.3-1.8-24.6-3.5-39.5-4.9c-7.4-0.8-14.9-1.5-22.3-2.1H354c-13-0.9-26.8-1.6-41-2
	c-52.3-1.7-98.2,0.2-124.2,4.3c-9.1,1.1-18.2,2.4-27.2,3.9c-309.1,50.6,218,363.1,646,339.1C1157.2,334.1,806.1,70.8,419.4,15.5z"/>
<path class="st2 level2" d="M713.9,0c0,0,195.7,94.8,291.7,198.3S997.9,366,997.9,366l201.9-15.5V0H713.9z"/>
<path class="st2 level2" d="M0,205.9c0,0,261.4,178.2,540.4,195.2l0,0l-138.8,10.7L0,321.5V205.9z"/>
</svg>
