<?xml version="1.0" encoding="utf-8"?>
<!-- Generator: Adobe Illustrator 22.0.1, SVG Export Plug-In . SVG Version: 6.00 Build 0)  -->
<svg version="1.0" id="Слой_1" xmlns="http://www.w3.org/2000/svg" xmlns:xlink="http://www.w3.org/1999/xlink" x="0px" y="0px"
	 viewBox="0 0 1199.8 1199.8" style="enable-background:new 0 0 1199.8 1199.8;" xml:space="preserve">
<style type="text/css">
	.st0{fill:#E2E2E2;}
	.st1{fill:#979695;}
	.st2{fill:#C9C8C9;}
</style>
<polygon class="st0" points="0,313 401.6,403.3 1199.8,342 1199.8,0 0,0 "/>
<path class="st1" d="M0,275.8c183.9,18.7,265.4,11.8,257.2-24.7C245.1,197.2,0,136.5,0,136.5V275.8z"/>
<path class="st1" d="M0,103.2c0,0,257.2,54.3,288.9,152.3c0,0,64-127.7-196.4-255.5H0V103.2z"/>
<path class="st1" d="M0,286.1c0,0,267.6,57.1,424.6,6.1s116-178,375-199s400.3,37,400.3,37v71.5c0,0-111.3-8.5-240.3,22.5
	s-86.5,110.5-202.5,139s-368.5,34-368.5,34s-63.1-36-178.8-42S0,286.1,0,286.1z"/>
<path class="st1" d="M938.6,362.1c0,0-52.5-140.9,261.2-124.9V342L938.6,362.1z"/>
<path class="st2" d="M0,284.3c183.9,18.7,265.4,11.8,257.2-24.7C245.1,205.7,0,145,0,145V284.3z"/>
<path class="st2" d="M938.6,370.6c0,0-52.5-140.9,261.2-124.9v104.8L938.6,370.6z"/>
<polygon class="st1" points="0,286.1 0,294.6 31.4,302.5 "/>
<path class="st2" d="M92.6,8.5L75.4,0H0v8.5v103.2c0,0,257.2,54.3,288.9,152.3C288.9,264,352.9,136.2,92.6,8.5z"/>
<path class="st2" d="M0,294.6c0,0,267.6,57.1,424.6,6.1s116-178,375-199s400.3,37,400.3,37v71.5c0,0-111.3-8.5-240.3,22.5
	s-86.5,110.5-202.5,139s-368.5,34-368.5,34s-63.1-36-178.8-42S0,294.6,0,294.6z"/>
</svg>
