<?xml version="1.0" encoding="utf-8"?>
<!-- Generator: Adobe Illustrator 22.0.1, SVG Export Plug-In . SVG Version: 6.00 Build 0)  -->
<svg version="1.0" id="Слой_1" xmlns="http://www.w3.org/2000/svg" xmlns:xlink="http://www.w3.org/1999/xlink" x="0px" y="0px"
	 viewBox="0 0 1199.8 1199.8" style="enable-background:new 0 0 1199.8 1199.8;" xml:space="preserve">
<style type="text/css">
	.st0{fill:#E2E2E2;}
	.st1{fill:#979695;}
	.st2{fill:#C9C8C9;}
</style>
<polygon class="st0" points="0,313 401.6,403.3 1199.8,342 1199.8,0 0,0 "/>
<path class="st1" d="M0,0v161.7l838.6-40c71.5,69.5,133,49,133,49l61.5,127.5c-62-3-61.2,31-61.2,31l-468.3,33.5
	c-77-39.5-134.5-21-134.5-21L38.6,230.2C83.1,204.7,0,172.7,0,172.7V313l401.6,90.3l798.2-61.3V0H0z"/>
<path class="st2" d="M0,0v170.2l838.6-40c71.5,69.5,133,49,133,49l61.5,127.5c-62-3-61.2,31-61.2,31l-468.3,33.5
	c-77-39.5-134.5-21-134.5-21L38.6,238.7C83.1,213.2,0,181.2,0,181.2v140.3l401.6,90.3l798.2-61.3V0H0z"/>
</svg>
