<?xml version="1.0" encoding="utf-8"?>
<!-- Generator: Adobe Illustrator 22.0.1, SVG Export Plug-In . SVG Version: 6.00 Build 0)  -->
<svg version="1.0" id="Слой_1" xmlns="http://www.w3.org/2000/svg" xmlns:xlink="http://www.w3.org/1999/xlink" x="0px" y="0px"
	 viewBox="0 0 1199.8 1199.8" style="enable-background:new 0 0 1199.8 1199.8;" xml:space="preserve">
<style type="text/css">
	.st0{fill:#E2E2E2;}
	.st1{fill:#C9C8C9;}
	.st1{fill:#979695;}
</style>
<polygon class="st0" points="0,313 401.6,403.3 1199.8,342 1199.8,0 0,0 "/>
<path class="st2" d="M0,75.2c0,0,694.1,225.3,1199.8,86.7V0H0V75.2z"/>
<path class="st1" d="M0,242.5c0,0,223.1,61.4,233.7,123L0,313V242.5z"/>
<path class="st1" d="M401.6,403.3c0,0-64-53.5,183.3-76.8c247.3-23.3,326,38.4,326,38.4L401.6,403.3z"/>
<path class="st1" d="M984.9,358.5c0,0-42.1-76.7,215-97.3V342L984.9,358.5z"/>
<polygon class="st1" points="233.7,365.5 233.7,374 224.7,360.8 "/>
<polygon class="st1" points="394.2,387.6 394.2,396 400.9,392.7 "/>
<polygon class="st1" points="910.9,364.9 889.2,362.3 910.9,373.4 "/>
<polygon class="st1" points="982.3,347.4 982.3,356.4 988.6,350.9 "/>
<path class="st2" d="M0,251c0,0,223.1,61.4,233.7,123L0,321.5V251z"/>
<path class="st2" d="M401.6,411.8c0,0-64-53.5,183.3-76.8c247.3-23.3,326,38.4,326,38.4L401.6,411.8z"/>
<path class="st2" d="M984.9,367c0,0-42.1-76.7,215-97.3v80.8L984.9,367z"/>
</svg>
