<?xml version="1.0" encoding="utf-8"?>
<!-- Generator: Adobe Illustrator 22.0.1, SVG Export Plug-In . SVG Version: 6.00 Build 0)  -->
<svg version="1.0" id="Слой_1" xmlns="http://www.w3.org/2000/svg" xmlns:xlink="http://www.w3.org/1999/xlink" x="0px" y="0px"
	 viewBox="0 0 1199.8 1199.8" style="enable-background:new 0 0 1199.8 1199.8;" xml:space="preserve">
<style type="text/css">
	.st0{fill:#E2E2E2;}
	.st2{fill:#C9C8C9;}
	.st1{fill:#979695;}
</style>
<polygon class="st0" points="0,313 401.6,403.3 1199.8,342 1199.8,0 0,0 "/>
<path class="st2" d="M0,162.3c0,0,221.6-48.1,660.6,24.3c407,67.2,480.3,168.4,480.3,168.4l59-4.5V0H0V162.3z"/>
<path class="st1" d="M594.6,388.5c0,0-28-68,152.6-81.3s278.2,21.6,331.4,44.1L594.6,388.5z"/>
<polygon class="st1" points="1078.7,351.3 1078.7,359.8 1049.1,351.3 "/>
<path class="st2" d="M594.6,397c0,0-28-68,152.6-81.3s278.2,21.6,331.4,44.1L594.6,397z"/>
</svg>
