<?xml version="1.0" encoding="utf-8"?>
<!-- Generator: Adobe Illustrator 22.0.1, SVG Export Plug-In . SVG Version: 6.00 Build 0)  -->
<svg version="1.0" id="Слой_1" xmlns="http://www.w3.org/2000/svg" xmlns:xlink="http://www.w3.org/1999/xlink" x="0px" y="0px"
	 viewBox="0 0 1199.8 1199.8" style="enable-background:new 0 0 1199.8 1199.8;" xml:space="preserve">
<style type="text/css">
	.st0{fill:#E2E2E2;}
	.st1{fill:#979695;}
	.st2{fill:#C9C8C9;}
</style>
<polygon class="st0" points="0,313 401.6,403.3 1199.8,342 1199.8,0 0,0 "/>
<path class="st1" d="M0,0v161.2l81.2-4c0,0,62.3-77,360.3-73s391,47,391,47l118.7-8.6l26,47.2c0,0,110.7,48.7,56.7,109.3l14.8,36.7
	l-86.8,4c0,0-144,54.7-408.7,22.7l-101.3,6l-88-29.3c0,0-134.7-8.7-251.3-76L0,195.8V313l401.6,90.3l798.2-61.3V0H0z"/>
<path class="st2" d="M0,0v169.7l81.2-4c0,0,62.3-77,360.3-73s391,47,391,47l118.7-8.6l26,47.2c0,0,110.7,48.7,56.7,109.3l14.8,36.7
	l-86.8,4c0,0-144,54.7-408.7,22.7l-101.3,6l-88-29.3c0,0-134.7-8.7-251.3-76L0,204.3v117.1l401.6,90.3l798.2-61.3V0H0z"/>
</svg>
