<?xml version="1.0" encoding="utf-8"?>
<!-- Generator: Adobe Illustrator 22.0.1, SVG Export Plug-In . SVG Version: 6.00 Build 0)  -->
<svg version="1.0" id="Слой_1" xmlns="http://www.w3.org/2000/svg" xmlns:xlink="http://www.w3.org/1999/xlink" x="0px" y="0px"
	 viewBox="0 0 1199.8 1199.8" style="enable-background:new 0 0 1199.8 1199.8;" xml:space="preserve">
<style type="text/css">
	.st0{fill:#E2E2E2;}
	.st1{fill:#979695;}
	.st2{fill:#C9C8C9;}
</style>
<polygon class="st0" points="0,313 401.6,403.3 1199.8,342 1199.8,0 0,0 "/>
<path class="st1" d="M0,263.2c0,0,292.6,35,485.6-50s307-137.3,473-102s188,132.7,142,173.3s-20.7,66.7-20.7,66.7l120-9.2V0H0V263.2
	z"/>
<path class="st2" d="M0,271.7c0,0,292.6,35,485.6-50s307-137.3,473-102s188,132.7,142,173.3s-20.7,66.7-20.7,66.7l120-9.2V0H0V271.7
	z"/>
</svg>
