<?xml version="1.0" encoding="utf-8"?>
<!-- Generator: Adobe Illustrator 22.0.1, SVG Export Plug-In . SVG Version: 6.00 Build 0)  -->
<svg version="1.0" id="Слой_1" xmlns="http://www.w3.org/2000/svg" xmlns:xlink="http://www.w3.org/1999/xlink" x="0px" y="0px"
	 viewBox="0 0 1199.8 1199.8" style="enable-background:new 0 0 1199.8 1199.8;" xml:space="preserve">
<style type="text/css">
	.st0{fill:#E2E2E2;}
	.st1{fill:#979695;}
	.st2{fill:#C9C8C9;}
	.st3{fill:#B0AFAF;}
</style>
<polygon class="st0" points="0,313 401.6,403.3 1199.8,342 1199.8,0 0,0 "/>
<polygon class="st1" points="790.4,373.4 790.4,381.9 769.4,373.4 "/>
<path class="st1" d="M0,164.2c0,0,501.3,55.5,790.4,209.3l-388.8,29.9L0,313V164.2z"/>
<path class="st2" d="M0,172.7c0,0,501.3,55.5,790.4,209.3l-388.8,29.9L0,321.5V172.7z"/>
<path class="st3" d="M61.3,335.3c0,0,222.4-108.1,677.3,50.7l-337,25.9L61.3,335.3z"/>
<path class="st1" d="M376.6,0c0,0,454.6,301.2,823.3,270.2V0H376.6z"/>
<path class="st2" d="M376.6,0c0,0,454.6,301.2,823.3,270.2V0H376.6z"/>
<path class="st1" d="M633.6,0c0,0,202.6,246.2,566.3,256.2V0H633.6z"/>
<path class="st0" d="M633.6,0c0,0,202.6,246.2,566.3,256.2V0H633.6z"/>
<polygon class="st3" points="738.7,385.9 738.7,394.4 710.7,387.4 "/>
<polygon class="st3" points="61.3,343.8 61.3,335.3 81,337.3 "/>
<path class="st0" d="M61.3,343.8c0,0,222.4-108.1,677.3,50.7l-337,25.9L61.3,343.8z"/>
</svg>
